<svg width="296" height="55" viewBox="0 0 296 55" fill="none" xmlns="http://www.w3.org/2000/svg">
<path d="M19.3898 3H0V54H19.3898C25.9169 54 32.1766 51.3134 36.7919 46.5312C41.4072 41.749 44 35.263 44 28.5C44 21.737 41.4072 15.251 36.7919 10.4688C32.1766 5.6866 25.9169 3 19.3898 3ZM9.9435 14.5909H21.8757C25.097 14.9131 28.098 16.4285 30.3277 18.8589V18.9697H9.9435V14.5909ZM30.3277 38.1411C28.098 40.5715 25.097 42.0869 21.8757 42.4091H9.9435V38.0303H30.3277V38.1411ZM32.6321 34.7514H9.9435V30.0635H33.9695C33.7951 31.6958 33.3422 33.2831 32.6321 34.7514ZM9.9435 26.9365V22.2486H32.6321C33.3422 23.7169 33.7951 25.3042 33.9695 26.9365H9.9435Z" fill="#39A9CB"/>
<path d="M63.382 37.292C64.558 37.292 65.62 37.568 66.568 38.12C67.528 38.672 68.278 39.44 68.818 40.424C69.37 41.396 69.646 42.488 69.646 43.7C69.646 44.912 69.37 46.01 68.818 46.994C68.278 47.966 67.528 48.728 66.568 49.28C65.62 49.832 64.558 50.108 63.382 50.108C62.398 50.108 61.498 49.952 60.682 49.64C59.866 49.328 59.182 48.866 58.63 48.254L59.458 47.408C60.454 48.416 61.744 48.92 63.328 48.92C64.216 48.92 65.026 48.716 65.758 48.308C66.49 47.888 67.078 47.318 67.522 46.598C67.978 45.866 68.236 45.044 68.296 44.132H61.798V43.034H68.278C68.182 42.158 67.906 41.378 67.45 40.694C67.006 39.998 66.424 39.458 65.704 39.074C64.984 38.678 64.192 38.48 63.328 38.48C61.744 38.48 60.454 38.984 59.458 39.992L58.63 39.146C59.182 38.534 59.866 38.072 60.682 37.76C61.498 37.448 62.398 37.292 63.382 37.292ZM79.9857 40.532V50H78.7077V41.666H74.1717L74.0457 44.006C73.9497 45.974 73.7217 47.486 73.3617 48.542C73.0017 49.598 72.3597 50.126 71.4357 50.126C71.1837 50.126 70.8777 50.078 70.5177 49.982L70.6077 48.884C70.8237 48.932 70.9737 48.956 71.0577 48.956C71.5497 48.956 71.9217 48.728 72.1737 48.272C72.4257 47.816 72.5937 47.252 72.6777 46.58C72.7617 45.908 72.8337 45.02 72.8937 43.916L73.0557 40.532H79.9857ZM91.8988 45.662H83.9788C84.0508 46.646 84.4288 47.444 85.1128 48.056C85.7968 48.656 86.6608 48.956 87.7048 48.956C88.2928 48.956 88.8328 48.854 89.3248 48.65C89.8168 48.434 90.2428 48.122 90.6028 47.714L91.3228 48.542C90.9028 49.046 90.3748 49.43 89.7388 49.694C89.1148 49.958 88.4248 50.09 87.6688 50.09C86.6968 50.09 85.8328 49.886 85.0768 49.478C84.3328 49.058 83.7508 48.482 83.3308 47.75C82.9108 47.018 82.7008 46.19 82.7008 45.266C82.7008 44.342 82.8988 43.514 83.2948 42.782C83.7028 42.05 84.2548 41.48 84.9508 41.072C85.6588 40.664 86.4508 40.46 87.3268 40.46C88.2028 40.46 88.9888 40.664 89.6848 41.072C90.3808 41.48 90.9268 42.05 91.3228 42.782C91.7188 43.502 91.9168 44.33 91.9168 45.266L91.8988 45.662ZM87.3268 41.558C86.4148 41.558 85.6468 41.852 85.0228 42.44C84.4108 43.016 84.0628 43.772 83.9788 44.708H90.6928C90.6088 43.772 90.2548 43.016 89.6308 42.44C89.0188 41.852 88.2508 41.558 87.3268 41.558ZM98.1837 45.788H96.0237V50H94.7457V40.532H96.0237V44.69H98.2017L101.532 40.532H102.918L99.1917 45.122L103.188 50H101.676L98.1837 45.788ZM111.671 41.666H108.089V50H106.811V41.666H103.229V40.532H111.671V41.666ZM118.397 40.46C119.285 40.46 120.089 40.664 120.809 41.072C121.529 41.468 122.093 42.032 122.501 42.764C122.909 43.496 123.113 44.33 123.113 45.266C123.113 46.214 122.909 47.054 122.501 47.786C122.093 48.518 121.529 49.088 120.809 49.496C120.101 49.892 119.297 50.09 118.397 50.09C117.629 50.09 116.933 49.934 116.309 49.622C115.697 49.298 115.193 48.83 114.797 48.218V53.492H113.519V40.532H114.743V42.404C115.127 41.78 115.631 41.3 116.255 40.964C116.891 40.628 117.605 40.46 118.397 40.46ZM118.307 48.956C118.967 48.956 119.567 48.806 120.107 48.506C120.647 48.194 121.067 47.756 121.367 47.192C121.679 46.628 121.835 45.986 121.835 45.266C121.835 44.546 121.679 43.91 121.367 43.358C121.067 42.794 120.647 42.356 120.107 42.044C119.567 41.732 118.967 41.576 118.307 41.576C117.635 41.576 117.029 41.732 116.489 42.044C115.961 42.356 115.541 42.794 115.229 43.358C114.929 43.91 114.779 44.546 114.779 45.266C114.779 45.986 114.929 46.628 115.229 47.192C115.541 47.756 115.961 48.194 116.489 48.506C117.029 48.806 117.635 48.956 118.307 48.956ZM129.765 50.09C128.853 50.09 128.031 49.886 127.299 49.478C126.567 49.058 125.991 48.482 125.571 47.75C125.151 47.018 124.941 46.19 124.941 45.266C124.941 44.342 125.151 43.514 125.571 42.782C125.991 42.05 126.567 41.48 127.299 41.072C128.031 40.664 128.853 40.46 129.765 40.46C130.677 40.46 131.499 40.664 132.231 41.072C132.963 41.48 133.533 42.05 133.941 42.782C134.361 43.514 134.571 44.342 134.571 45.266C134.571 46.19 134.361 47.018 133.941 47.75C133.533 48.482 132.963 49.058 132.231 49.478C131.499 49.886 130.677 50.09 129.765 50.09ZM129.765 48.956C130.437 48.956 131.037 48.806 131.565 48.506C132.105 48.194 132.525 47.756 132.825 47.192C133.125 46.628 133.275 45.986 133.275 45.266C133.275 44.546 133.125 43.904 132.825 43.34C132.525 42.776 132.105 42.344 131.565 42.044C131.037 41.732 130.437 41.576 129.765 41.576C129.093 41.576 128.487 41.732 127.947 42.044C127.419 42.344 126.999 42.776 126.687 43.34C126.387 43.904 126.237 44.546 126.237 45.266C126.237 45.986 126.387 46.628 126.687 47.192C126.999 47.756 127.419 48.194 127.947 48.506C128.487 48.806 129.093 48.956 129.765 48.956ZM137.302 40.532H138.58V44.726H144.538V40.532H145.816V50H144.538V45.824H138.58V50H137.302V40.532ZM149.449 40.532H150.727V44.726H156.685V40.532H157.963V50H156.685V45.824H150.727V50H149.449V40.532ZM165.573 43.88C166.761 43.892 167.667 44.156 168.291 44.672C168.915 45.188 169.227 45.932 169.227 46.904C169.227 47.912 168.891 48.686 168.219 49.226C167.547 49.766 166.587 50.03 165.339 50.018L161.595 50V40.532H162.873V43.844L165.573 43.88ZM170.811 40.532H172.089V50H170.811V40.532ZM165.267 49.046C166.143 49.058 166.803 48.884 167.247 48.524C167.703 48.152 167.931 47.612 167.931 46.904C167.931 46.208 167.709 45.692 167.265 45.356C166.821 45.02 166.155 44.846 165.267 44.834L162.873 44.798V49.01L165.267 49.046ZM184.008 45.662H176.088C176.16 46.646 176.538 47.444 177.222 48.056C177.906 48.656 178.77 48.956 179.814 48.956C180.402 48.956 180.942 48.854 181.434 48.65C181.926 48.434 182.352 48.122 182.712 47.714L183.432 48.542C183.012 49.046 182.484 49.43 181.848 49.694C181.224 49.958 180.534 50.09 179.778 50.09C178.806 50.09 177.942 49.886 177.186 49.478C176.442 49.058 175.86 48.482 175.44 47.75C175.02 47.018 174.81 46.19 174.81 45.266C174.81 44.342 175.008 43.514 175.404 42.782C175.812 42.05 176.364 41.48 177.06 41.072C177.768 40.664 178.56 40.46 179.436 40.46C180.312 40.46 181.098 40.664 181.794 41.072C182.49 41.48 183.036 42.05 183.432 42.782C183.828 43.502 184.026 44.33 184.026 45.266L184.008 45.662ZM179.436 41.558C178.524 41.558 177.756 41.852 177.132 42.44C176.52 43.016 176.172 43.772 176.088 44.708H182.802C182.718 43.772 182.364 43.016 181.74 42.44C181.128 41.852 180.36 41.558 179.436 41.558ZM199.612 40.532L194.878 51.134C194.494 52.022 194.05 52.652 193.546 53.024C193.042 53.396 192.436 53.582 191.728 53.582C191.272 53.582 190.846 53.51 190.45 53.366C190.054 53.222 189.712 53.006 189.424 52.718L190.018 51.764C190.498 52.244 191.074 52.484 191.746 52.484C192.178 52.484 192.544 52.364 192.844 52.124C193.156 51.884 193.444 51.476 193.708 50.9L194.122 49.982L189.892 40.532H191.224L194.788 48.578L198.352 40.532H199.612ZM205.299 50.09C204.363 50.09 203.523 49.886 202.779 49.478C202.047 49.07 201.471 48.5 201.051 47.768C200.631 47.024 200.421 46.19 200.421 45.266C200.421 44.342 200.631 43.514 201.051 42.782C201.471 42.05 202.047 41.48 202.779 41.072C203.523 40.664 204.363 40.46 205.299 40.46C206.115 40.46 206.841 40.622 207.477 40.946C208.125 41.258 208.635 41.72 209.007 42.332L208.053 42.98C207.741 42.512 207.345 42.164 206.865 41.936C206.385 41.696 205.863 41.576 205.299 41.576C204.615 41.576 203.997 41.732 203.445 42.044C202.905 42.344 202.479 42.776 202.167 43.34C201.867 43.904 201.717 44.546 201.717 45.266C201.717 45.998 201.867 46.646 202.167 47.21C202.479 47.762 202.905 48.194 203.445 48.506C203.997 48.806 204.615 48.956 205.299 48.956C205.863 48.956 206.385 48.842 206.865 48.614C207.345 48.386 207.741 48.038 208.053 47.57L209.007 48.218C208.635 48.83 208.125 49.298 207.477 49.622C206.829 49.934 206.103 50.09 205.299 50.09ZM218.906 40.532V50H217.628V41.666H213.092L212.966 44.006C212.87 45.974 212.642 47.486 212.282 48.542C211.922 49.598 211.28 50.126 210.356 50.126C210.104 50.126 209.798 50.078 209.438 49.982L209.528 48.884C209.744 48.932 209.894 48.956 209.978 48.956C210.47 48.956 210.842 48.728 211.094 48.272C211.346 47.816 211.514 47.252 211.598 46.58C211.682 45.908 211.754 45.02 211.814 43.916L211.976 40.532H218.906ZM230.585 40.532L225.851 51.134C225.467 52.022 225.023 52.652 224.519 53.024C224.015 53.396 223.409 53.582 222.701 53.582C222.245 53.582 221.819 53.51 221.423 53.366C221.027 53.222 220.685 53.006 220.397 52.718L220.991 51.764C221.471 52.244 222.047 52.484 222.719 52.484C223.151 52.484 223.517 52.364 223.817 52.124C224.129 51.884 224.417 51.476 224.681 50.9L225.095 49.982L220.865 40.532H222.197L225.761 48.578L229.325 40.532H230.585ZM239.272 41.666H233.854V50H232.576V40.532H239.272V41.666ZM241.119 40.532H242.397V48.056L248.715 40.532H249.849V50H248.571V42.476L242.271 50H241.119V40.532ZM264 43.412C264.828 43.616 265.476 43.988 265.944 44.528C266.424 45.068 266.664 45.716 266.664 46.472C266.664 47.204 266.436 47.846 265.98 48.398C265.524 48.95 264.918 49.376 264.162 49.676C263.406 49.964 262.584 50.108 261.696 50.108C260.856 50.108 260.028 49.976 259.212 49.712C258.408 49.436 257.682 49.028 257.034 48.488L257.52 47.534C258.072 48.002 258.702 48.362 259.41 48.614C260.118 48.854 260.832 48.974 261.552 48.974C262.236 48.974 262.866 48.866 263.442 48.65C264.018 48.434 264.474 48.128 264.81 47.732C265.158 47.324 265.332 46.844 265.332 46.292C265.332 45.56 265.044 44.996 264.468 44.6C263.892 44.204 263.082 44.006 262.038 44.006H259.338V42.926H261.966C262.854 42.926 263.544 42.74 264.036 42.368C264.54 41.984 264.792 41.456 264.792 40.784C264.792 40.04 264.474 39.458 263.838 39.038C263.202 38.606 262.404 38.39 261.444 38.39C260.844 38.39 260.238 38.48 259.626 38.66C259.014 38.828 258.432 39.086 257.88 39.434L257.43 38.336C258.678 37.592 260.028 37.22 261.48 37.22C262.332 37.22 263.112 37.358 263.82 37.634C264.528 37.91 265.086 38.306 265.494 38.822C265.914 39.338 266.124 39.944 266.124 40.64C266.124 41.312 265.938 41.894 265.566 42.386C265.194 42.866 264.672 43.208 264 43.412ZM274.148 44.222H271.268V50H269.972V37.4H271.268V43.052H274.148L278.414 37.4H279.854L275.174 43.52L280.124 50H278.594L274.148 44.222ZM287.679 50.108C286.431 50.108 285.297 49.832 284.277 49.28C283.269 48.716 282.477 47.948 281.901 46.976C281.337 46.004 281.055 44.912 281.055 43.7C281.055 42.488 281.337 41.396 281.901 40.424C282.477 39.452 283.269 38.69 284.277 38.138C285.297 37.574 286.431 37.292 287.679 37.292C288.927 37.292 290.049 37.568 291.045 38.12C292.053 38.672 292.845 39.44 293.421 40.424C293.997 41.396 294.285 42.488 294.285 43.7C294.285 44.912 293.997 46.01 293.421 46.994C292.845 47.966 292.053 48.728 291.045 49.28C290.049 49.832 288.927 50.108 287.679 50.108ZM287.679 48.92C288.675 48.92 289.575 48.698 290.379 48.254C291.183 47.798 291.813 47.174 292.269 46.382C292.725 45.578 292.953 44.684 292.953 43.7C292.953 42.716 292.725 41.828 292.269 41.036C291.813 40.232 291.183 39.608 290.379 39.164C289.575 38.708 288.675 38.48 287.679 38.48C286.683 38.48 285.777 38.708 284.961 39.164C284.157 39.608 283.521 40.232 283.053 41.036C282.597 41.828 282.369 42.716 282.369 43.7C282.369 44.684 282.597 45.578 283.053 46.382C283.521 47.174 284.157 47.798 284.961 48.254C285.777 48.698 286.683 48.92 287.679 48.92Z" fill="#232323"/>
<path d="M59.5184 7.9H66.5564C68.2738 7.9 69.7994 8.23733 71.1334 8.912C72.4674 9.57133 73.5024 10.5143 74.2384 11.741C74.9744 12.9523 75.3424 14.3553 75.3424 15.95C75.3424 17.5447 74.9744 18.9553 74.2384 20.182C73.5024 21.3933 72.4674 22.3363 71.1334 23.011C69.7994 23.6703 68.2738 24 66.5564 24H59.5184V7.9ZM66.4184 21.47C67.5991 21.47 68.6341 21.2477 69.5234 20.803C70.4281 20.343 71.1181 19.699 71.5934 18.871C72.0841 18.0277 72.3294 17.054 72.3294 15.95C72.3294 14.846 72.0841 13.88 71.5934 13.052C71.1181 12.2087 70.4281 11.5647 69.5234 11.12C68.6341 10.66 67.5991 10.43 66.4184 10.43H62.5084V21.47H66.4184ZM83.7644 24.161C82.5224 24.161 81.4031 23.8927 80.4064 23.356C79.4097 22.8193 78.6277 22.0757 78.0604 21.125C77.5084 20.159 77.2324 19.0703 77.2324 17.859C77.2324 16.6477 77.5084 15.5667 78.0604 14.616C78.6277 13.6653 79.4097 12.9217 80.4064 12.385C81.4031 11.8483 82.5224 11.58 83.7644 11.58C85.0217 11.58 86.1487 11.8483 87.1454 12.385C88.1421 12.9217 88.9164 13.6653 89.4684 14.616C90.0357 15.5667 90.3194 16.6477 90.3194 17.859C90.3194 19.0703 90.0357 20.159 89.4684 21.125C88.9164 22.0757 88.1421 22.8193 87.1454 23.356C86.1487 23.8927 85.0217 24.161 83.7644 24.161ZM83.7644 21.7C84.8224 21.7 85.6964 21.3473 86.3864 20.642C87.0764 19.9367 87.4214 19.009 87.4214 17.859C87.4214 16.709 87.0764 15.7813 86.3864 15.076C85.6964 14.3707 84.8224 14.018 83.7644 14.018C82.7064 14.018 81.8324 14.3707 81.1424 15.076C80.4677 15.7813 80.1304 16.709 80.1304 17.859C80.1304 19.009 80.4677 19.9367 81.1424 20.642C81.8324 21.3473 82.7064 21.7 83.7644 21.7ZM98.7036 24.161C97.431 24.161 96.2886 23.8927 95.2766 23.356C94.2646 22.8193 93.475 22.0757 92.9076 21.125C92.3403 20.159 92.0566 19.0703 92.0566 17.859C92.0566 16.6477 92.3403 15.5667 92.9076 14.616C93.475 13.6653 94.257 12.9217 95.2536 12.385C96.2656 11.8483 97.4156 11.58 98.7036 11.58C99.915 11.58 100.973 11.8253 101.878 12.316C102.798 12.8067 103.488 13.512 103.948 14.432L101.74 15.72C101.387 15.1527 100.942 14.731 100.406 14.455C99.8843 14.1637 99.3093 14.018 98.6806 14.018C97.6073 14.018 96.718 14.3707 96.0126 15.076C95.3073 15.766 94.9546 16.6937 94.9546 17.859C94.9546 19.0243 95.2996 19.9597 95.9896 20.665C96.695 21.355 97.592 21.7 98.6806 21.7C99.3093 21.7 99.8843 21.562 100.406 21.286C100.942 20.9947 101.387 20.5653 101.74 19.998L103.948 21.286C103.472 22.206 102.775 22.919 101.855 23.425C100.95 23.9157 99.8996 24.161 98.7036 24.161ZM107.802 24.161C107.281 24.161 106.836 23.9847 106.468 23.632C106.1 23.264 105.916 22.804 105.916 22.252C105.916 21.6847 106.092 21.2247 106.445 20.872C106.813 20.5193 107.265 20.343 107.802 20.343C108.339 20.343 108.783 20.5193 109.136 20.872C109.504 21.2247 109.688 21.6847 109.688 22.252C109.688 22.804 109.504 23.264 109.136 23.632C108.768 23.9847 108.323 24.161 107.802 24.161ZM124.164 11.718V24H121.427V22.436C120.967 22.988 120.392 23.4173 119.702 23.724C119.012 24.0153 118.268 24.161 117.471 24.161C115.83 24.161 114.534 23.7087 113.584 22.804C112.648 21.884 112.181 20.527 112.181 18.733V11.718H115.056V18.342C115.056 19.446 115.301 20.274 115.792 20.826C116.298 21.3627 117.011 21.631 117.931 21.631C118.958 21.631 119.771 21.3167 120.369 20.688C120.982 20.044 121.289 19.124 121.289 17.928V11.718H124.164ZM130.665 13.512C131.493 12.224 132.95 11.58 135.035 11.58V14.317C134.79 14.271 134.567 14.248 134.368 14.248C133.249 14.248 132.375 14.5777 131.746 15.237C131.117 15.881 130.803 16.8163 130.803 18.043V24H127.928V11.718H130.665V13.512ZM142.099 11.58C143.908 11.58 145.288 12.017 146.239 12.891C147.205 13.7497 147.688 15.053 147.688 16.801V24H144.974V22.505C144.621 23.0417 144.115 23.4557 143.456 23.747C142.812 24.023 142.03 24.161 141.11 24.161C140.19 24.161 139.385 24.0077 138.695 23.701C138.005 23.379 137.468 22.942 137.085 22.39C136.717 21.8227 136.533 21.1863 136.533 20.481C136.533 19.377 136.939 18.4953 137.752 17.836C138.58 17.1613 139.875 16.824 141.639 16.824H144.813V16.64C144.813 15.7813 144.552 15.122 144.031 14.662C143.525 14.202 142.766 13.972 141.754 13.972C141.064 13.972 140.381 14.0793 139.707 14.294C139.047 14.5087 138.488 14.8077 138.028 15.191L136.901 13.098C137.545 12.6073 138.319 12.2317 139.224 11.971C140.128 11.7103 141.087 11.58 142.099 11.58ZM141.708 22.068C142.428 22.068 143.065 21.907 143.617 21.585C144.184 21.2477 144.583 20.7723 144.813 20.159V18.733H141.846C140.19 18.733 139.362 19.2773 139.362 20.366C139.362 20.8873 139.569 21.3013 139.983 21.608C140.397 21.9147 140.972 22.068 141.708 22.068ZM151.377 6.934H154.252V24H151.377V6.934ZM161.821 24.161C160.824 24.161 159.85 24.0307 158.9 23.77C157.949 23.5093 157.19 23.1797 156.623 22.781L157.727 20.596C158.279 20.964 158.938 21.263 159.705 21.493C160.487 21.7077 161.253 21.815 162.005 21.815C163.722 21.815 164.581 21.3627 164.581 20.458C164.581 20.0287 164.358 19.7297 163.914 19.561C163.484 19.3923 162.787 19.2313 161.821 19.078C160.809 18.9247 159.981 18.7483 159.337 18.549C158.708 18.3497 158.156 18.0047 157.681 17.514C157.221 17.008 156.991 16.3103 156.991 15.421C156.991 14.2557 157.474 13.328 158.44 12.638C159.421 11.9327 160.74 11.58 162.396 11.58C163.239 11.58 164.082 11.6797 164.926 11.879C165.769 12.063 166.459 12.316 166.996 12.638L165.892 14.823C164.849 14.2097 163.676 13.903 162.373 13.903C161.529 13.903 160.885 14.0333 160.441 14.294C160.011 14.5393 159.797 14.869 159.797 15.283C159.797 15.743 160.027 16.0727 160.487 16.272C160.962 16.456 161.69 16.6323 162.672 16.801C163.653 16.9543 164.458 17.1307 165.087 17.33C165.715 17.5293 166.252 17.8667 166.697 18.342C167.157 18.8173 167.387 19.492 167.387 20.366C167.387 21.516 166.888 22.436 165.892 23.126C164.895 23.816 163.538 24.161 161.821 24.161ZM174.877 18.733L172.738 20.757V24H169.863V6.934H172.738V17.238L178.695 11.718H182.145L177.016 16.87L182.628 24H179.132L174.877 18.733ZM185.629 24.161C185.108 24.161 184.663 23.9847 184.295 23.632C183.927 23.264 183.743 22.804 183.743 22.252C183.743 21.6847 183.92 21.2247 184.272 20.872C184.64 20.5193 185.093 20.343 185.629 20.343C186.166 20.343 186.611 20.5193 186.963 20.872C187.331 21.2247 187.515 21.6847 187.515 22.252C187.515 22.804 187.331 23.264 186.963 23.632C186.595 23.9847 186.151 24.161 185.629 24.161ZM195.338 18.733L193.199 20.757V24H190.324V6.934H193.199V17.238L199.156 11.718H202.606L197.477 16.87L203.089 24H199.593L195.338 18.733ZM214.268 21.7V24H203.665V22.183L210.404 14.018H203.803V11.718H214.084V13.535L207.322 21.7H214.268Z" fill="#232323"/>
</svg>
